<svg xmlns="http://www.w3.org/2000/svg" xmlns:xlink="http://www.w3.org/1999/xlink" viewBox="0 0 896 310">
  <defs>
    <polygon id="wola-logo-white-a" points="895.154 142.995 895.154 285 .06 285 .06 .99 895.154 .99"/>
  </defs>
  <g fill="none" fill-rule="evenodd">
    <g transform="translate(0 25)">
      <mask id="wola-logo-white-b" fill="#fff">
        <use xlink:href="#wola-logo-white-a"/>
      </mask>
      <path fill="#FFFFFE" d="M16.658 273.752C16.521 274.158 16.249 274.339 15.753 274.339L11.85 274.339C11.487 274.339 11.349 274.158 11.349 273.93 11.349 273.793 11.395 273.66 11.439 273.477L22.6 243.904C22.737 243.497 23.006 243.312 23.461 243.312L27.634 243.312C28.135 243.312 28.361 243.497 28.541 243.904L39.564 273.477C39.607 273.613 39.697 273.793 39.697 273.93 39.697 274.158 39.564 274.339 39.159 274.339L35.163 274.339C34.665 274.339 34.395 274.158 34.259 273.752L31.945 267.4 19.015 267.4 16.658 273.752zM25.502 249.481L20.287 263.318 30.674 263.318 25.502 249.481 25.502 249.481zM53.272 274.339C49.689 274.339 46.424 273.431 44.244 271.39 42.432 269.759 41.298 267.308 41.298 264.135 41.298 261.595 41.977 259.056 43.472 257.101 45.245 254.789 48.1 253.293 52.002 253.293 53.499 253.293 54.679 253.52 55.904 253.883L55.904 244.039C55.904 243.724 56.131 243.45 56.447 243.45L59.983 243.45C60.303 243.45 60.574 243.724 60.574 244.039L60.574 273.799C60.574 274.112 60.303 274.339 59.983 274.339L53.272 274.339zM55.904 270.439L55.904 257.874C54.679 257.47 53.725 257.283 52.271 257.283 50.141 257.283 48.419 258.236 47.329 259.78 46.514 260.913 46.062 262.365 46.062 264.045 46.062 266.083 46.738 267.585 47.83 268.58 49.234 269.941 51.411 270.439 53.772 270.439L55.904 270.439zM77.681 273.889C77.501 274.339 77.275 274.473 76.775 274.473L72.694 274.473C72.241 274.473 71.966 274.339 71.831 273.889L64.347 254.47C64.165 254.156 64.211 253.703 64.755 253.703L68.522 253.703C69.02 253.703 69.29 253.883 69.427 254.337L74.914 269.894 75.007 269.894 80.449 254.337C80.586 253.883 80.858 253.703 81.357 253.703L85.076 253.703C85.622 253.703 85.622 254.156 85.482 254.47L77.681 273.889zM91.208 256.286C93.203 254.428 95.971 253.293 99.054 253.293 102.095 253.293 104.907 254.428 106.902 256.286 108.9 258.189 110.077 260.87 110.077 264.045 110.077 267.265 108.943 269.985 106.902 271.847 104.95 273.71 102.095 274.79 99.054 274.79 95.971 274.79 93.157 273.71 91.208 271.847 89.167 269.985 87.988 267.265 87.988 264.045 87.988 260.87 89.211 258.189 91.208 256.286L91.208 256.286zM94.382 268.895C95.516 270.123 97.152 270.893 99.054 270.893 100.915 270.893 102.547 270.123 103.681 268.895 104.817 267.629 105.496 265.994 105.496 264.045 105.496 262.094 104.817 260.46 103.681 259.187 102.547 257.965 100.915 257.192 99.054 257.192 97.152 257.192 95.516 257.965 94.382 259.187 93.249 260.46 92.614 262.094 92.614 264.045 92.614 265.994 93.249 267.629 94.382 268.895L94.382 268.895zM130.362 269.622C130.771 269.349 131.087 269.488 131.224 269.759L132.537 272.207C132.676 272.48 132.537 272.753 132.266 272.978 130.635 274.112 128.186 274.79 125.555 274.79 121.925 274.79 118.976 273.66 117.026 271.574 115.257 269.759 114.26 267.127 114.26 264.045 114.26 261.368 115.118 259.056 116.57 257.328 118.661 254.747 121.972 253.339 125.645 253.339 128.277 253.339 130.544 254.11 132.177 255.245 132.447 255.469 132.585 255.746 132.447 256.013L131.087 258.555C130.951 258.871 130.588 258.918 130.227 258.687 128.683 257.739 127.321 257.328 125.692 257.328 123.604 257.328 121.835 258.1 120.655 259.463 119.613 260.641 119.02 262.229 119.02 264.088 119.02 266.037 119.658 267.763 120.791 268.988 121.925 270.212 123.604 270.893 125.692 270.893 127.367 270.893 128.864 270.53 130.362 269.622L130.362 269.622zM138.488 258.687C138.08 258.918 137.807 258.871 137.671 258.51L136.673 256.242C136.537 255.924 136.537 255.746 136.902 255.516 138.987 254.156 141.983 253.339 145.02 253.339 147.062 253.339 149.602 253.703 151.326 255.604 152.413 256.83 153.052 258.51 153.052 261.141L153.052 273.799C153.052 274.112 152.823 274.339 152.503 274.339L149.419 274.339C149.149 274.339 148.874 274.112 148.874 273.799L148.874 273.253 148.694 273.253C146.745 274.473 145.02 274.79 142.843 274.79 140.981 274.79 139.216 274.294 137.9 273.253 136.58 272.207 135.722 270.621 135.722 268.58 135.722 265.812 137.354 264.223 139.713 263.275 142.345 262.229 145.792 261.91 148.377 261.728L148.377 261.183C148.377 259.688 148.149 258.782 147.56 258.057 146.835 257.15 145.655 256.873 144.433 256.873 142.208 256.873 140.167 257.783 138.488 258.687L138.488 258.687zM148.377 270.212L148.377 264.904C143.479 265.18 140.167 266.083 140.167 268.49 140.167 270.487 142.165 271.39 144.295 271.39 145.655 271.39 147.062 270.986 148.377 270.212L148.377 270.212zM174.239 269.622C174.647 269.349 174.964 269.488 175.102 269.759L176.419 272.207C176.556 272.48 176.419 272.753 176.144 272.978 174.511 274.112 172.061 274.79 169.432 274.79 165.802 274.79 162.853 273.66 160.905 271.574 159.137 269.759 158.136 267.127 158.136 264.045 158.136 261.368 159 259.056 160.453 257.328 162.535 254.747 165.846 253.339 169.522 253.339 172.151 253.339 174.421 254.11 176.055 255.245 176.326 255.469 176.463 255.746 176.326 256.013L174.964 258.555C174.827 258.871 174.468 258.918 174.102 258.687 172.56 257.739 171.2 257.328 169.564 257.328 167.481 257.328 165.712 258.1 164.532 259.463 163.487 260.641 162.9 262.229 162.9 264.088 162.9 266.037 163.534 267.763 164.665 268.988 165.802 270.212 167.481 270.893 169.564 270.893 171.246 270.893 172.742 270.53 174.239 269.622L174.239 269.622zM192.936 275.472C191.846 278.285 190.577 280.598 188.9 282.185 186.858 284.184 184.089 285.136 180.599 284.955 180.326 284.955 180.144 284.773 180.144 284.498L180.144 280.965C180.144 280.689 180.373 280.556 180.643 280.556 180.959 280.556 181.231 280.598 181.779 280.598 183.229 280.598 184.542 280.058 185.632 279.009 186.447 278.195 187.218 277.106 187.899 275.654L178.512 254.47C178.375 254.156 178.375 253.703 178.966 253.703L183.229 253.703C183.728 253.703 184 253.883 184.136 254.337L190.306 269.849 195.702 254.337C195.837 253.883 196.11 253.703 196.609 253.703L200.555 253.703C201.1 253.703 201.053 254.156 200.964 254.47L192.936 275.472zM223.337 247.986C222.747 248.715 222.567 249.848 222.567 251.294L222.567 253.703 227.874 253.703C228.189 253.703 228.418 253.973 228.418 254.247L228.418 256.83C228.418 257.101 228.189 257.375 227.874 257.375L222.567 257.375 222.567 273.799C222.567 274.112 222.295 274.339 221.974 274.339L218.436 274.339C218.12 274.339 217.896 274.112 217.896 273.799L217.896 257.375 215.445 257.375C215.128 257.375 214.853 257.101 214.853 256.83L214.853 254.247C214.853 253.973 215.128 253.703 215.445 253.703L217.896 253.703 217.896 250.889C217.896 248.532 218.394 246.259 219.846 244.81 220.889 243.724 222.475 243.089 224.606 243.089 227.238 243.089 229.644 243.902 231.141 245.039 231.412 245.221 231.5 245.539 231.367 245.763L230.187 248.211C230.051 248.532 229.644 248.574 229.324 248.35 228.1 247.486 226.917 247.035 225.607 247.035 224.56 247.035 223.835 247.355 223.337 247.986L223.337 247.986zM233.411 256.286C235.408 254.428 238.175 253.293 241.259 253.293 244.297 253.293 247.11 254.428 249.108 256.286 251.103 258.189 252.282 260.87 252.282 264.045 252.282 267.265 251.148 269.985 249.108 271.847 247.156 273.71 244.297 274.79 241.259 274.79 238.175 274.79 235.362 273.71 233.411 271.847 231.37 269.985 230.19 267.265 230.19 264.045 230.19 260.87 231.417 258.189 233.411 256.286L233.411 256.286zM236.585 268.895C237.72 270.123 239.352 270.893 241.259 270.893 243.118 270.893 244.751 270.123 245.887 268.895 247.021 267.629 247.7 265.994 247.7 264.045 247.7 262.094 247.021 260.46 245.887 259.187 244.751 257.965 243.118 257.192 241.259 257.192 239.352 257.192 237.72 257.965 236.585 259.187 235.453 260.46 234.817 262.094 234.817 264.045 234.817 265.994 235.453 267.629 236.585 268.895L236.585 268.895zM262.362 264.362L262.362 273.799C262.362 274.112 262.134 274.339 261.814 274.339L258.275 274.339C257.958 274.339 257.689 274.112 257.689 273.799L257.689 254.247C257.689 253.973 257.958 253.703 258.275 253.703L261.632 253.703C261.951 253.703 262.224 253.973 262.224 254.247L262.224 256.242 262.362 256.242C263.628 254.337 265.397 253.339 267.755 253.339 269.706 253.339 271.432 253.93 272.745 255.016 273.02 255.245 273.109 255.562 272.974 255.787L271.658 258.51C271.521 258.782 271.206 258.871 270.842 258.645 269.663 257.923 268.53 257.47 267.033 257.47 263.494 257.47 262.362 261.141 262.362 264.362L262.362 264.362zM314.444 243.45C314.757 243.45 314.986 243.724 314.986 244.039L314.986 273.799C314.986 274.112 314.757 274.339 314.444 274.339L310.496 274.339C310.179 274.339 309.903 274.112 309.903 273.799L309.903 261.098 293.622 261.098 293.622 273.799C293.622 274.112 293.353 274.339 293.077 274.339L289.085 274.339C288.815 274.339 288.542 274.112 288.542 273.799L288.542 244.039C288.542 243.724 288.815 243.45 289.085 243.45L293.077 243.45C293.353 243.45 293.622 243.724 293.622 244.039L293.622 256.562 309.903 256.562 309.903 244.039C309.903 243.724 310.179 243.45 310.496 243.45L314.444 243.45zM321.44 254.247C321.44 253.973 321.669 253.703 321.984 253.703L325.522 253.703C325.838 253.703 326.11 253.973 326.11 254.247L326.11 265.224C326.11 266.677 326.292 267.676 326.791 268.625 327.517 269.894 328.968 270.802 331.28 270.802 333.596 270.802 335.046 269.894 335.727 268.625 336.269 267.676 336.452 266.677 336.452 265.224L336.452 254.247C336.452 253.973 336.725 253.703 337.042 253.703L340.583 253.703C340.896 253.703 341.122 253.973 341.122 254.247L341.122 265.541C341.122 268.173 340.583 269.985 339.447 271.484 337.861 273.66 334.999 274.79 331.28 274.79 327.562 274.79 324.707 273.66 323.118 271.484 321.984 269.985 321.44 268.173 321.44 265.541L321.44 254.247zM352.111 273.799C352.111 274.112 351.884 274.339 351.564 274.339L348.028 274.339C347.711 274.339 347.438 274.112 347.438 273.799L347.438 254.247C347.438 253.973 347.711 253.703 348.028 253.703L351.385 253.703C351.705 253.703 351.973 253.973 351.973 254.247L351.973 255.655 352.111 255.655C353.426 254.11 355.468 253.339 357.688 253.339 359.23 253.339 360.684 253.656 361.953 254.428 362.998 255.064 363.812 255.924 364.313 256.966 364.901 256.062 365.763 255.016 367.034 254.292 368.212 253.61 369.619 253.339 371.161 253.339 373.292 253.339 375.383 253.93 376.875 255.338 378.238 256.604 379.055 258.645 379.055 261.641L379.055 273.799C379.055 274.112 378.826 274.339 378.511 274.339L375.017 274.339C374.699 274.339 374.426 274.112 374.426 273.799L374.426 262.818C374.426 261.048 374.067 259.552 373.246 258.555 372.57 257.783 371.524 257.283 370.074 257.283 368.575 257.283 367.305 257.965 366.58 259.142 365.855 260.328 365.583 261.957 365.583 263.904L365.583 273.799C365.583 274.112 365.354 274.339 365.039 274.339L361.547 274.339C361.229 274.339 360.956 274.112 360.956 273.799L360.956 262.818C360.956 261.048 360.593 259.552 359.776 258.555 359.095 257.783 358.054 257.283 356.602 257.283 355.105 257.283 353.833 258.01 353.11 259.282 352.426 260.46 352.111 262.094 352.111 264.088L352.111 273.799zM386.778 258.687C386.37 258.918 386.094 258.871 385.958 258.51L384.965 256.242C384.827 255.924 384.827 255.746 385.189 255.516 387.274 254.156 390.272 253.339 393.309 253.339 395.353 253.339 397.892 253.703 399.614 255.604 400.702 256.83 401.339 258.51 401.339 261.141L401.339 273.799C401.339 274.112 401.111 274.339 400.793 274.339L397.709 274.339C397.437 274.339 397.164 274.112 397.164 273.799L397.164 273.253 396.981 273.253C395.034 274.473 393.309 274.79 391.133 274.79 389.271 274.79 387.503 274.294 386.187 273.253 384.874 272.207 384.014 270.621 384.014 268.58 384.014 265.812 385.646 264.223 388.002 263.275 390.631 262.229 394.082 261.91 396.668 261.728L396.668 261.183C396.668 259.688 396.442 258.782 395.851 258.057 395.126 257.15 393.947 256.873 392.719 256.873 390.496 256.873 388.455 257.783 386.778 258.687L386.778 258.687zM396.668 270.212L396.668 264.904C391.768 265.18 388.455 266.083 388.455 268.49 388.455 270.487 390.451 271.39 392.584 271.39 393.947 271.39 395.353 270.986 396.668 270.212L396.668 270.212zM427.428 273.799C427.428 274.112 427.199 274.339 426.881 274.339L423.298 274.339C422.981 274.339 422.755 274.112 422.755 273.799L422.755 263.09C422.755 261.232 422.483 259.552 421.439 258.465 420.714 257.739 419.671 257.283 418.132 257.283 416.044 257.283 414.409 258.236 413.412 260.005 412.64 261.412 412.324 263.139 412.324 264.812L412.324 273.799C412.324 274.112 412.095 274.339 411.779 274.339L408.243 274.339C407.92 274.339 407.65 274.112 407.65 273.799L407.65 254.247C407.65 253.973 407.92 253.703 408.243 253.703L411.597 253.703C411.915 253.703 412.185 253.973 412.185 254.247L412.185 256.469 412.324 256.469C413.82 254.383 416.177 253.293 419.037 253.293 421.393 253.293 423.527 253.883 425.022 255.245 426.564 256.604 427.428 258.827 427.428 261.957L427.428 273.799zM463.321 262.501L470.894 273.389C471.165 273.842 471.256 274.339 470.623 274.339L466.222 274.339C465.721 274.339 465.405 274.252 465.134 273.752L457.831 262.954 451.027 262.954 451.027 273.799C451.027 274.112 450.756 274.339 450.484 274.339L446.491 274.339C446.217 274.339 445.949 274.112 445.949 273.799L445.949 244.039C445.949 243.724 446.217 243.45 446.491 243.45L459.238 243.45C462.231 243.45 464.863 243.902 466.899 245.356 469.172 246.988 470.533 249.71 470.533 253.201 470.533 256.333 469.305 258.871 466.993 260.641 465.816 261.595 464.634 262.141 463.321 262.501L463.321 262.501zM451.027 247.762L451.027 258.687 458.375 258.687C460.327 258.687 461.867 258.51 463.142 257.739 464.455 256.966 465.364 255.516 465.364 253.25 465.364 251.027 464.544 249.574 463.223 248.76 462.003 247.942 460.462 247.762 458.786 247.762L451.027 247.762zM475.442 244.224C475.442 242.726 476.663 241.545 478.161 241.545 479.657 241.545 480.88 242.726 480.88 244.224 480.88 245.763 479.657 246.944 478.161 246.944 476.663 246.944 475.442 245.763 475.442 244.224L475.442 244.224zM476.441 253.703L479.974 253.703C480.294 253.703 480.523 253.973 480.523 254.247L480.523 273.799C480.523 274.112 480.294 274.339 479.974 274.339L476.441 274.339C476.121 274.339 475.848 274.112 475.848 273.799L475.848 254.247C475.848 253.973 476.121 253.703 476.441 253.703L476.441 253.703zM499.848 279.738C500.751 278.788 501.162 277.288 501.162 275.427L501.162 273.112C499.485 274.294 497.761 274.748 495.584 274.748 492.682 274.748 490.458 273.71 488.868 271.982 486.961 270.034 485.966 267.176 485.966 264 485.966 261.098 486.83 258.189 488.69 256.151 490.278 254.428 492.545 253.339 495.539 253.339 498.171 253.339 499.938 254.292 501.162 255.245L501.298 255.245 501.298 254.247C501.298 253.973 501.526 253.703 501.843 253.703L505.245 253.703C505.564 253.703 505.836 253.973 505.836 254.247L505.836 274.885C505.836 278.285 504.927 280.965 502.973 282.687 501.253 284.277 498.757 285 495.626 285 492.635 285 489.732 284.047 487.828 282.778 487.555 282.597 487.462 282.321 487.6 282.051L488.96 279.377C489.096 279.15 489.414 279.009 489.777 279.238 491.413 280.326 493.317 281.143 495.718 281.143 497.533 281.143 498.985 280.689 499.848 279.738L499.848 279.738zM501.162 269.171L501.162 259.187C500.165 258.419 498.578 257.283 496.218 257.283 494.45 257.283 493.178 257.965 492.273 259.01 491.229 260.277 490.731 262.004 490.731 264 490.731 266.083 491.183 267.942 492.273 269.171 493.136 270.212 494.403 270.851 496.126 270.851 498.214 270.851 499.848 270.257 501.162 269.171L501.162 269.171zM517.14 256.469C518.636 254.383 520.994 253.293 523.852 253.293 526.208 253.293 528.342 253.883 529.837 255.245 531.38 256.604 532.246 258.827 532.246 261.957L532.246 273.799C532.246 274.112 531.968 274.339 531.697 274.339L528.165 274.339C527.838 274.339 527.57 274.112 527.57 273.799L527.57 263.09C527.57 261.232 527.299 259.552 526.258 258.465 525.529 257.739 524.485 257.283 522.943 257.283 520.858 257.283 519.221 258.236 518.225 260.005 517.458 261.412 517.14 263.139 517.14 264.812L517.14 273.799C517.14 274.112 516.913 274.339 516.593 274.339L513.053 274.339C512.74 274.339 512.464 274.112 512.464 273.799L512.464 244.039C512.464 243.724 512.74 243.45 513.053 243.45L516.593 243.45C516.913 243.45 517.14 243.724 517.14 244.039L517.14 256.469zM543.182 266.677C543.182 267.853 543.364 268.81 543.725 269.488 544.227 270.348 545.041 270.802 546.403 270.802 547.447 270.802 548.535 270.487 549.713 269.577 550.076 269.306 550.391 269.349 550.578 269.67L551.754 272.207C551.89 272.48 551.8 272.753 551.53 272.933 549.894 274.112 547.629 274.79 545.221 274.79 542.682 274.79 541.052 274.02 540.053 272.798 538.875 271.39 538.51 269.349 538.51 267.265L538.51 257.375 536.195 257.375C535.88 257.375 535.606 257.101 535.606 256.83L535.606 254.247C535.606 253.973 535.88 253.703 536.195 253.703L538.51 253.703 538.51 249.667C538.51 249.392 538.782 249.121 539.101 249.121L542.64 249.121C542.912 249.121 543.182 249.392 543.182 249.667L543.182 253.703 549.624 253.703C549.894 253.703 550.169 253.973 550.169 254.247L550.169 256.83C550.169 257.101 549.894 257.375 549.624 257.375L543.182 257.375 543.182 266.677zM564.688 268.852C564.688 267.489 563.6 266.9 562.237 266.267 560.97 265.677 559.107 265.18 557.57 264.453 555.345 263.409 554.164 261.728 554.164 259.142 554.164 255.516 556.975 253.293 562.014 253.293 565.053 253.293 567.09 254.016 568.587 254.838 568.954 255.016 568.997 255.291 568.861 255.562L567.592 258.147C567.408 258.465 567.182 258.51 566.868 258.327 565.37 257.511 563.782 257.101 562.287 257.101 560.334 257.101 558.971 257.692 558.971 259.056 558.971 260.233 559.97 260.822 561.195 261.368 562.6 261.957 564.371 262.501 565.777 263.181 568.454 264.498 569.497 266.083 569.497 268.441 569.497 272.207 566.365 274.79 561.333 274.79 557.841 274.79 555.571 273.931 554.121 272.978 553.843 272.798 553.758 272.575 553.892 272.296L555.161 269.713C555.297 269.397 555.571 269.306 555.888 269.488 557.519 270.53 559.289 271.165 561.105 271.165 563.19 271.165 564.688 270.439 564.688 268.852L564.688 268.852zM586.427 244.224C586.427 242.726 587.652 241.545 589.147 241.545 590.645 241.545 591.868 242.726 591.868 244.224 591.868 245.763 590.645 246.944 589.147 246.944 587.652 246.944 586.427 245.763 586.427 244.224L586.427 244.224zM587.422 253.703L590.962 253.703C591.282 253.703 591.505 253.973 591.505 254.247L591.505 273.799C591.505 274.112 591.282 274.339 590.962 274.339L587.422 274.339C587.104 274.339 586.833 274.112 586.833 273.799L586.833 254.247C586.833 253.973 587.104 253.703 587.422 253.703L587.422 253.703zM617.955 273.799C617.955 274.112 617.725 274.339 617.41 274.339L613.829 274.339C613.507 274.339 613.282 274.112 613.282 273.799L613.282 263.09C613.282 261.232 613.007 259.552 611.969 258.465 611.241 257.739 610.198 257.283 608.654 257.283 606.57 257.283 604.94 258.236 603.939 260.005 603.168 261.412 602.851 263.139 602.851 264.812L602.851 273.799C602.851 274.112 602.624 274.339 602.304 274.339L598.764 274.339C598.451 274.339 598.179 274.112 598.179 273.799L598.179 254.247C598.179 253.973 598.451 253.703 598.764 253.703L602.124 253.703C602.437 253.703 602.714 253.973 602.714 254.247L602.714 256.469 602.851 256.469C604.348 254.383 606.705 253.293 609.564 253.293 611.922 253.293 614.053 253.883 615.548 255.245 617.096 256.604 617.955 258.827 617.955 261.957L617.955 273.799zM641.645 266.677C641.645 267.853 641.824 268.81 642.191 269.488 642.689 270.348 643.505 270.802 644.867 270.802 645.913 270.802 646.997 270.487 648.178 269.577 648.541 269.306 648.86 269.349 649.039 269.67L650.217 272.207C650.355 272.48 650.262 272.753 649.993 272.933 648.36 274.112 646.09 274.79 643.686 274.79 641.148 274.79 639.514 274.02 638.514 272.798 637.336 271.39 636.974 269.349 636.974 267.265L636.974 257.375 634.665 257.375C634.34 257.375 634.068 257.101 634.068 256.83L634.068 254.247C634.068 253.973 634.34 253.703 634.665 253.703L636.974 253.703 636.974 249.667C636.974 249.392 637.244 249.121 637.563 249.121L641.102 249.121C641.373 249.121 641.645 249.392 641.645 249.667L641.645 253.703 648.088 253.703C648.36 253.703 648.631 253.973 648.631 254.247L648.631 256.83C648.631 257.101 648.36 257.375 648.088 257.375L641.645 257.375 641.645 266.677zM658.391 256.469C659.889 254.383 662.246 253.293 665.098 253.293 667.458 253.293 669.593 253.883 671.09 255.245 672.633 256.604 673.493 258.827 673.493 261.957L673.493 273.799C673.493 274.112 673.221 274.339 672.95 274.339L669.411 274.339C669.096 274.339 668.818 274.112 668.818 273.799L668.818 263.09C668.818 261.232 668.55 259.552 667.504 258.465 666.779 257.739 665.735 257.283 664.193 257.283 662.108 257.283 660.474 258.236 659.478 260.005 658.704 261.412 658.391 263.139 658.391 264.812L658.391 273.799C658.391 274.112 658.163 274.339 657.844 274.339L654.305 274.339C653.986 274.339 653.717 274.112 653.717 273.799L653.717 244.039C653.717 243.724 653.986 243.45 654.305 243.45L657.844 243.45C658.163 243.45 658.391 243.724 658.391 244.039L658.391 256.469zM695.591 269.488C696.001 269.26 696.272 269.397 696.409 269.622L697.633 271.891C697.816 272.162 697.676 272.435 697.406 272.613 695.729 273.799 692.736 274.79 689.603 274.79 686.157 274.79 683.343 273.66 681.438 271.616 679.628 269.713 678.583 266.992 678.583 263.771 678.583 260.777 679.671 258.147 681.488 256.242 683.211 254.428 685.75 253.339 689.014 253.339 692.551 253.339 695.18 254.656 696.773 256.741 698.268 258.687 698.904 261.551 698.72 264.678 698.675 265.041 698.449 265.316 698.086 265.316L683.482 265.316C683.615 266.947 684.165 268.173 685.025 269.123 686.157 270.439 687.883 271.118 689.922 271.118 692.143 271.118 694.002 270.439 695.591 269.488L695.591 269.488zM694.232 262.182C694.138 260.732 693.733 259.596 692.872 258.645 692.008 257.692 690.695 257.058 688.969 257.058 687.201 257.058 685.75 257.692 684.839 258.736 684.068 259.644 683.57 260.87 683.482 262.182L694.232 262.182zM718.512 273.752C718.376 274.159 718.102 274.339 717.605 274.339L713.704 274.339C713.341 274.339 713.203 274.159 713.203 273.931 713.203 273.799 713.251 273.66 713.295 273.477L724.452 243.902C724.588 243.497 724.862 243.315 725.317 243.315L729.49 243.315C729.986 243.315 730.213 243.497 730.395 243.902L741.417 273.477C741.461 273.613 741.555 273.799 741.555 273.931 741.555 274.159 741.417 274.339 741.009 274.339L737.018 274.339C736.52 274.339 736.246 274.159 736.11 273.752L733.795 267.398 720.867 267.398 718.512 273.752zM727.355 249.48L722.138 263.316 732.529 263.316 727.355 249.48zM749.949 273.799C749.949 274.112 749.729 274.339 749.409 274.339L745.872 274.339C745.554 274.339 745.281 274.112 745.281 273.799L745.281 254.247C745.281 253.973 745.554 253.703 745.872 253.703L749.23 253.703C749.543 253.703 749.817 253.973 749.817 254.247L749.817 255.655 749.949 255.655C751.27 254.11 753.312 253.339 755.532 253.339 757.076 253.339 758.525 253.656 759.801 254.428 760.838 255.064 761.656 255.924 762.156 256.966 762.744 256.062 763.607 255.016 764.875 254.292 766.06 253.61 767.462 253.339 769.002 253.339 771.138 253.339 773.225 253.93 774.721 255.338 776.083 256.604 776.899 258.645 776.899 261.641L776.899 273.799C776.899 274.112 776.668 274.339 776.354 274.339L772.861 274.339C772.543 274.339 772.271 274.112 772.271 273.799L772.271 262.818C772.271 261.048 771.909 259.552 771.091 258.555 770.414 257.783 769.366 257.283 767.917 257.283 766.42 257.283 765.149 257.965 764.425 259.142 763.7 260.328 763.425 261.957 763.425 263.904L763.425 273.799C763.425 274.112 763.202 274.339 762.882 274.339L759.389 274.339C759.072 274.339 758.795 274.112 758.795 273.799L758.795 262.818C758.795 261.048 758.437 259.552 757.619 258.555 756.938 257.783 755.896 257.283 754.447 257.283 752.948 257.283 751.678 258.01 750.949 259.282 750.274 260.46 749.949 262.094 749.949 264.088L749.949 273.799zM799 269.488C799.407 269.26 799.681 269.397 799.817 269.622L801.045 271.891C801.223 272.162 801.087 272.435 800.816 272.613 799.139 273.799 796.145 274.79 793.012 274.79 789.566 274.79 786.752 273.66 784.848 271.616 783.034 269.713 781.99 266.992 781.99 263.771 781.99 260.777 783.081 258.147 784.893 256.242 786.618 254.428 789.157 253.339 792.424 253.339 795.96 253.339 798.59 254.656 800.178 256.741 801.675 258.687 802.311 261.551 802.13 264.678 802.084 265.041 801.858 265.316 801.496 265.316L786.888 265.316C787.025 266.947 787.569 268.173 788.433 269.123 789.566 270.439 791.292 271.118 793.333 271.118 795.551 271.118 797.413 270.439 799 269.488L799 269.488zM797.64 262.182C797.547 260.732 797.14 259.596 796.278 258.645 795.418 257.692 794.104 257.058 792.377 257.058 790.61 257.058 789.157 257.692 788.249 258.736 787.477 259.644 786.98 260.87 786.888 262.182L797.64 262.182zM812.117 264.362L812.117 273.799C812.117 274.112 811.888 274.339 811.571 274.339L808.034 274.339C807.716 274.339 807.445 274.112 807.445 273.799L807.445 254.247C807.445 253.973 807.716 253.703 808.034 253.703L811.392 253.703C811.71 253.703 811.981 253.973 811.981 254.247L811.981 256.242 812.117 256.242C813.387 254.337 815.158 253.339 817.517 253.339 819.464 253.339 821.188 253.93 822.504 255.016 822.776 255.245 822.865 255.562 822.734 255.787L821.416 258.51C821.281 258.782 820.96 258.871 820.599 258.645 819.422 257.923 818.287 257.47 816.788 257.47 813.248 257.47 812.117 261.141 812.117 264.362L812.117 264.362zM825.278 244.224C825.278 242.726 826.504 241.545 828 241.545 829.495 241.545 830.722 242.726 830.722 244.224 830.722 245.763 829.495 246.944 828 246.944 826.504 246.944 825.278 245.763 825.278 244.224L825.278 244.224zM826.275 253.703L829.815 253.703C830.132 253.703 830.358 253.973 830.358 254.247L830.358 273.799C830.358 274.112 830.132 274.339 829.815 274.339L826.275 274.339C825.956 274.339 825.687 274.112 825.687 273.799L825.687 254.247C825.687 253.973 825.956 253.703 826.275 253.703L826.275 253.703zM851.91 269.622C852.315 269.349 852.634 269.488 852.768 269.759L854.085 272.207C854.221 272.48 854.085 272.753 853.811 272.978 852.18 274.112 849.733 274.79 847.099 274.79 843.469 274.79 840.521 273.66 838.569 271.574 836.802 269.759 835.804 267.127 835.804 264.045 835.804 261.368 836.664 259.056 838.117 257.328 840.208 254.747 843.516 253.339 847.19 253.339 849.821 253.339 852.086 254.11 853.723 255.245 853.994 255.469 854.128 255.746 853.994 256.013L852.634 258.555C852.495 258.871 852.137 258.918 851.77 258.687 850.232 257.739 848.869 257.328 847.237 257.328 845.148 257.328 843.38 258.1 842.2 259.463 841.157 260.641 840.565 262.229 840.565 264.088 840.565 266.037 841.202 267.763 842.334 268.988 843.469 270.212 845.148 270.893 847.237 270.893 848.915 270.893 850.41 270.53 851.91 269.622L851.91 269.622zM860.033 258.687C859.625 258.918 859.354 258.871 859.215 258.51L858.216 256.242C858.084 255.924 858.084 255.746 858.448 255.516 860.537 254.156 863.526 253.339 866.567 253.339 868.608 253.339 871.149 253.703 872.87 255.604 873.958 256.83 874.593 258.51 874.593 261.141L874.593 273.799C874.593 274.112 874.366 274.339 874.05 274.339L870.967 274.339C870.693 274.339 870.42 274.112 870.42 273.799L870.42 273.253 870.24 273.253C868.291 274.473 866.567 274.79 864.39 274.79 862.529 274.79 860.762 274.294 859.445 273.253 858.126 272.207 857.267 270.621 857.267 268.58 857.267 265.812 858.899 264.223 861.26 263.275 863.89 262.229 867.338 261.91 869.92 261.728L869.92 261.183C869.92 259.688 869.696 258.782 869.105 258.057 868.38 257.15 867.202 256.873 865.979 256.873 863.752 256.873 861.712 257.783 860.033 258.687L860.033 258.687zM869.92 270.212L869.92 264.904C865.022 265.18 861.712 266.083 861.712 268.49 861.712 270.487 863.708 271.39 865.839 271.39 867.202 271.39 868.608 270.986 869.92 270.212L869.92 270.212zM890.342 268.852C890.342 267.489 889.253 266.9 887.892 266.267 886.622 265.677 884.762 265.18 883.22 264.453 880.997 263.409 879.815 261.728 879.815 259.142 879.815 255.516 882.628 253.293 887.667 253.293 890.703 253.293 892.748 254.016 894.24 254.838 894.605 255.016 894.65 255.291 894.515 255.562L893.248 258.147C893.063 258.465 892.838 258.51 892.519 258.327 891.022 257.511 889.433 257.101 887.938 257.101 885.989 257.101 884.627 257.692 884.627 259.056 884.627 260.233 885.625 260.822 886.849 261.368 888.256 261.957 890.025 262.501 891.43 263.181 894.103 264.498 895.154 266.083 895.154 268.441 895.154 272.207 892.021 274.79 886.989 274.79 883.491 274.79 881.224 273.931 879.772 272.978 879.502 272.798 879.409 272.575 879.547 272.296L880.814 269.713C880.954 269.397 881.224 269.306 881.543 269.488 883.173 270.53 884.945 271.165 886.759 271.165 888.845 271.165 890.342 270.439 890.342 268.852L890.342 268.852zM239.152 6.634C240.281 2.684 243.103.99 247.614.99L288.521.99C293.6.99 293.319 5.221 292.469 8.045L238.024 188.881C236.896 192.547 234.357 193.959 230.124 193.959L186.115 193.959C181.882 193.959 179.342 192.547 178.214 188.881L146.62 93.805 146.056 93.805 116.995 188.881C115.867 192.547 113.326 193.959 109.095 193.959L64.805 193.959C60.572 193.959 58.033 192.547 56.904 188.881L.481 8.045C-.364 5.221-.647.99 4.434.99L45.342.99C49.853.99 52.675 2.684 53.803 6.634L86.811 131.33 87.37 131.33 122.92 6.634C124.048 2.684 126.871.99 131.381.99L161.285.99C165.802.99 168.339 2.684 169.753 6.634L207.837 131.33 208.4 131.33 239.152 6.634" mask="url(#wola-logo-white-b)"/>
    </g>
    <path fill="#FFFFFE" d="M600.013 25.99C602.833 25.99 605.09 28.247 605.09 31.068L605.09 174.099 679.288 174.099C682.11 174.099 684.372 176.357 684.372 179.177L684.372 213.035C684.372 215.854 682.11 218.11 679.288 218.11L560.517 218.11C557.697 218.11 555.44 215.854 555.44 213.035L555.44 31.068C555.44 28.247 557.697 25.99 560.517 25.99L600.013 25.99M756.607 212.467C755.472 216.414 752.653 218.11 748.14 218.11L709.203 218.11C705.82 218.11 704.694 216.414 704.694 214.16 704.694 213.03 704.975 212.185 705.252 211.059L767.039 30.218C768.165 26.554 770.71 25.141 774.94 25.141L816.691 25.141C820.926 25.141 823.461 26.554 824.588 30.218L885.249 211.059C885.527 212.185 885.807 213.03 885.807 214.16 885.807 216.414 884.677 218.11 881.298 218.11L841.237 218.11C836.723 218.11 833.903 216.414 832.775 212.467L824.309 183.41 765.347 183.41 756.607 212.467zM795.253 85.233L777.477 143.633 812.459 143.633 795.253 85.233 795.253 85.233zM432.784 79.784C430.571 78.027 426.916 77.95 424.594 79.893 421.294 82.649 420.017 91.546 425.124 92.896 426.118 93.161 427.167 93.426 428.439 93.426 435.59 93.426 437.8 83.757 432.784 79.784"/>
    <path fill="#FFFFFE" d="M415.712,0.974 C348.612,0.974 294.214,55.372 294.214,122.474 C294.214,189.574 348.612,243.972 415.712,243.972 C482.815,243.972 537.21,189.574 537.21,122.474 C537.21,55.372 482.815,0.974 415.712,0.974 L415.712,0.974 Z M474.306,70.704 C474.509,69.461 474.502,67.57 474.925,66.225 C475.159,65.482 475.668,65.024 476.205,65.014 C477.009,65.006 477.91,65.07 478.633,65.482 C478.968,65.669 479.186,66.156 479.186,66.696 C479.186,66.696 477.165,91.298 476.848,91.621 C476.488,91.977 472.972,91.479 472.672,90.789 C472.426,90.228 473.959,72.835 474.306,70.704 L474.306,70.704 Z M471.681,95.45 C471.671,93.877 473.024,94.209 474.113,94.353 C476.205,94.624 478.207,95.046 480.33,95.117 C481.363,95.154 484.213,95.2 484.078,96.822 C483.883,99.2 483.578,101.953 483.162,102.037 C482.111,102.241 472.091,101.9 471.385,100.429 C471.346,100.352 471.194,99.207 471.184,99.082 L471.681,95.45 Z M471.25,107.681 C471.304,107.018 471.453,105.999 471.718,105.27 C471.892,104.775 472.401,104.479 472.917,104.538 L482.683,105.644 C483.544,105.763 484.206,106.933 484.253,108.347 C484.36,111.446 484.362,114.563 484.262,117.666 C484.246,118.224 484.206,118.848 483.933,119.188 C483.726,119.448 472.893,122.18 471.306,117.482 C470.44,114.858 470.969,110.853 471.25,107.681 L471.25,107.681 Z M441.619,64.077 C442.336,62.006 443.699,59.092 446.132,56.991 C447.771,55.574 450.073,54.826 452.789,54.826 C454.272,54.826 455.751,55.05 457.171,55.441 C458.002,55.673 458.814,55.966 459.602,56.317 C459.983,56.487 460.356,56.671 460.72,56.876 C460.899,56.971 461.072,57.075 461.245,57.18 C461.372,57.258 461.627,57.366 461.708,57.485 C461.776,57.589 461.622,57.645 461.546,57.655 C461.322,57.682 461.077,57.639 460.851,57.61 C460.173,57.541 459.5,57.562 458.819,57.607 C457.158,57.711 455.454,58.003 454.106,59.057 C450.311,62.039 449.956,70.538 450.831,74.255 C450.979,74.889 451.432,76.829 453.059,77.154 C454.974,77.543 456.095,75.294 456.806,73.851 C456.913,73.635 457.01,73.442 457.104,73.268 C458.925,69.855 461.36,65.253 462.176,66.156 C462.728,66.77 458.79,84.848 457.337,87.009 C456.667,88.009 451.184,83.384 448.094,79.153 C445.8,76.004 444.991,73.732 442.753,70.538 C442.415,70.059 440.756,68.356 440.747,67.712 C440.743,67.268 441.455,64.553 441.619,64.077 L441.619,64.077 Z M412.322,44.823 C412.464,43.149 422.873,43.159 423.921,43.239 C426.624,43.455 425.762,45.768 425.286,47.479 C424.588,49.94 423.69,54.132 423.577,54.98 C423.386,56.439 423.31,57.937 422.798,59.298 C422.46,60.197 417.909,60.947 416.75,60.998 C415.98,61.03 415.394,61.237 414.886,60.5 C414.521,59.973 414.344,59.236 414.181,58.611 C413.858,57.389 413.695,56.141 413.472,54.898 C412.802,51.197 412.164,46.704 412.322,44.823 L412.322,44.823 Z M422.566,63.678 C422.975,63.72 423.108,65.844 422.473,66.15 C420.129,67.294 417.467,66.014 413.957,71.784 C411.638,75.587 410.313,80.174 409.005,84.368 C407.368,89.645 406.427,96.376 406.937,100.916 C407.121,102.539 407.277,101.977 407.47,103.612 C407.521,104.048 405.319,104.962 404.926,104.962 C404.812,104.958 404.656,104.99 404.585,104.9 C402.771,102.571 402.678,96.219 404.539,85.96 C405.4,81.22 408.583,72.657 411.3,68.527 C413.523,65.147 418.568,63.271 422.566,63.678 L422.566,63.678 Z M394.265,54.794 C395.461,53.315 397.024,52.163 398.515,51.098 C398.898,50.821 400.574,49.613 401.035,49.717 C402.25,49.983 408.096,60.447 410.096,62.733 C410.597,63.305 409.75,64.316 408.941,65.727 C408.18,67.054 407.24,67.85 406.427,67.85 C403.506,67.846 391.943,60.761 391.866,60.316 C391.527,58.408 393.157,56.17 394.265,54.794 L394.265,54.794 Z M384.636,74.935 C384.91,71.979 386.29,66.531 387.63,67.018 C388.912,67.48 403.275,73.538 403.182,75.118 C402.998,78.381 402.414,80.858 401.198,81.114 C400.958,81.167 396.934,81.17 394.39,81.018 C389.726,80.744 386.006,80.013 385.461,79.499 C384.728,78.815 384.425,77.148 384.636,74.935 L384.636,74.935 Z M401.882,104.825 C401.874,105.233 400.71,106.249 400.253,106.701 C399.492,107.446 398.688,108.141 397.879,108.822 C397.073,109.501 396.353,110.307 395.479,110.842 C394.309,111.556 393.181,112.396 391.933,112.891 C390.752,113.36 390.459,113.033 390.042,112.546 C389.521,111.939 389.167,111.167 388.776,110.457 C388.36,109.701 387.988,108.91 387.745,108.058 C387.552,107.381 387.307,106.715 387.213,106.002 C387.135,105.445 386.851,104.559 387.307,104.203 C387.859,103.772 394.572,101.957 396.603,101.373 C396.86,101.305 397.119,101.223 397.383,101.138 C398.122,100.905 398.891,100.658 399.604,100.617 C399.724,100.612 399.83,100.612 399.929,100.617 C400.283,100.644 400.763,100.637 400.904,101.294 C401.067,102.068 401.896,104.066 401.882,104.825 L401.882,104.825 Z M383.924,88.108 C383.929,87.459 383.984,86.566 384.41,86.027 C384.87,85.436 397.888,88.018 398.517,88.129 C399.231,88.257 400.022,88.057 400.181,88.873 C400.313,89.55 400.444,90.221 400.482,90.912 C400.517,91.618 400.501,92.323 400.444,93.025 C400.42,93.324 400.457,93.906 400.279,94.173 C399.413,95.484 389.428,96.935 387.014,96.687 C385.875,96.568 385.167,96.046 384.785,95.038 C384.221,93.545 383.935,91.932 383.889,90.335 C383.864,89.595 383.916,88.845 383.924,88.108 L383.924,88.108 Z M338.467,137.654 C338.56,136.48 338.768,135.326 339.043,134.181 C339.277,133.215 339.582,131.757 339.901,130.82 C340.601,128.768 342.459,130.203 343.568,131.028 C345.135,132.193 346.751,133.298 348.477,134.213 C350.048,135.047 352.57,136.004 353.237,136.704 C353.644,137.128 353.465,139.326 353.371,140.241 C353.259,141.264 353.395,143.089 352.202,143.557 C351.683,143.759 351.033,143.737 350.487,143.732 C349.411,143.722 348.351,143.559 347.283,143.455 C344.096,143.15 340.281,142.41 338.946,141.452 C338.095,140.834 338.396,138.502 338.467,137.654 L338.467,137.654 Z M338.536,153.632 C338.2,152.317 337.696,146.989 338.442,146.566 C339.274,146.09 351.179,148.847 352.553,149.068 C353.574,149.227 354.027,153.813 353.68,155.094 C353.482,155.812 352.629,155.969 351.446,156.112 C351.217,156.136 348.989,156.519 348.111,156.687 C346.22,157.044 340.358,157.743 339.704,156.923 C339.031,156.064 338.793,154.643 338.536,153.632 L338.536,153.632 Z M345.538,172.659 C345.385,172.715 345.227,172.745 345.078,172.745 C343.797,172.745 342.808,170.776 342.333,169.603 C341.595,167.773 340.734,165.021 341.045,162.983 C341.194,162.01 349.593,161.899 354,161.182 C354.161,161.154 354.296,161.192 354.395,161.205 C355.09,161.332 355.441,162.361 355.714,163.161 C355.885,163.662 356.096,164.151 356.302,164.62 C356.572,165.238 356.826,165.82 356.998,166.437 C357.273,167.45 349.384,171.279 345.538,172.659 L345.538,172.659 Z M462.038,152.842 C461.009,154.223 459.636,155.476 457.672,156.562 C455.231,157.906 444.773,158.852 443.416,161.538 C441.762,164.819 445.512,170.765 446.866,173.448 C449.236,178.161 445.838,183.476 445.407,188.381 C445.269,189.966 444.775,191.965 446.601,192.588 C447.759,192.985 449.344,192.914 450.513,192.568 C451.222,192.35 453.5,191.461 454.021,191.775 C454.916,192.315 455.283,193.678 451.677,195.729 C451.184,196.01 447.854,197.71 449.628,198.348 C450.583,198.401 451.583,198.385 452.474,198.062 C453.271,197.77 453.499,197.109 454.496,197.512 C455.976,199.381 452.631,201.886 449.534,202.365 C448.176,202.582 445.233,202.922 443.865,202.896 C437.832,202.78 428.415,203.822 425.343,196.201 C424.015,192.91 423.528,179.586 419.629,178.334 C413.764,176.454 411.29,189.546 410.049,191.489 C408.689,193.638 406.313,194.807 404.003,195.484 C399.309,196.852 393.202,196.941 388.927,194.277 C387.819,193.588 385.729,192.133 384.397,192.866 C383.084,193.595 383.027,195.632 382.836,196.914 C382.592,198.567 382.366,200.31 382.106,201.904 C381.954,202.857 381.926,203.436 382.177,204.378 C382.248,204.643 382.33,205.081 382.14,205.344 C382.008,205.521 381.733,205.636 381.518,205.66 C381.225,205.702 380.918,205.645 380.634,205.571 C380.139,205.444 379.711,205.148 379.488,204.679 C378.91,203.462 378.817,202.354 378.588,201.04 C378.479,200.41 378.296,199.749 377.711,199.4 C377.348,199.182 376.861,199.215 376.566,199.519 C376.094,199.998 375.85,200.84 375.616,201.44 C375.26,202.369 375.249,203.238 375.264,204.228 C375.273,204.796 375.169,205.296 374.574,205.58 C374.084,205.825 373.507,205.541 373.044,205.244 C369.695,203.082 370.169,197.486 369.742,193.844 C369.282,189.905 369.105,180.115 372.306,178.25 C375.887,176.159 386.113,177.746 387.802,177.072 C389.195,176.523 391.119,174.109 388.685,171.86 C386.451,169.798 375.314,169.568 371.476,169.12 C368.421,168.769 365.102,167.891 362.745,165.815 C361.867,165.041 361.159,164.104 360.456,163.175 C357.076,158.693 356.592,153.983 356.134,148.522 C355.865,145.263 355.578,141.976 356.058,138.721 C356.153,138.072 356.39,137.3 357.027,137.157 C357.605,137.035 358.117,137.513 358.531,137.937 C361.83,141.27 366.557,143.146 371.245,142.945 C371.846,142.921 372.426,142.628 372.761,142.128 C374.626,139.343 368.195,136.758 366.673,135.953 C363.848,134.458 361.037,132.931 358.319,131.237 C353.286,128.105 346.945,120.297 344.6,114.608 C344.208,113.655 343.827,112.229 344.392,111.26 C345.694,109.038 349.041,112.62 350.149,113.511 C352.094,115.079 354.114,116.62 356.506,117.445 C357.438,117.759 359.19,118.23 359.789,117.085 C360.291,116.12 359.474,114.874 358.862,114.169 C355.877,110.768 354.812,110.893 351.52,107.792 C349.502,105.888 347.512,103.947 345.682,101.864 C344.405,100.405 343.141,98.883 342.38,97.078 C341.852,95.814 340.843,93.254 341.669,91.977 C342.668,90.436 344.553,93.947 344.926,94.577 C345.882,96.166 347.71,97.746 349.218,98.785 C350.662,99.776 355.784,103.532 356.73,100.235 C357.488,97.59 354.853,96.257 353.134,95.226 C350.458,93.621 348.321,91.312 346.355,88.92 C345.133,87.43 343.874,85.883 343.246,84.031 C342.98,83.237 342.331,80.978 343.339,80.475 C344.571,79.86 345.192,81.968 345.678,82.626 C346.397,83.602 347.264,84.571 348.176,85.367 C349.517,86.529 351.621,87.992 353.376,86.769 C354.188,86.202 353.8,85.207 353.379,84.51 C352.371,82.833 350.684,81.79 349.351,80.409 C348.07,79.077 346.826,77.686 345.923,76.071 C345.313,74.977 344.729,73.809 344.556,72.553 C344.441,71.723 344.34,70.305 345.048,69.694 C346.304,68.623 347.375,72.151 347.791,72.853 C348.585,74.198 349.934,75.155 351.356,75.741 C352.127,76.057 354.37,76.92 354.057,75.248 C353.813,73.934 352.871,72.569 352.008,71.666 C349.988,69.572 348.498,66.914 348.007,64.032 C347.778,62.68 347.348,61.668 347.705,60.332 C347.92,59.523 348.6,58.329 349.256,59.563 C349.604,60.223 349.732,60.961 350.014,61.645 C350.724,63.372 352.67,65.969 354.403,66.729 C355.249,67.098 356.21,66.251 356.343,65.338 C356.475,64.43 356.062,63.545 355.706,62.701 C354.643,60.199 353.782,57.381 353.943,54.635 C354.032,53.129 354.902,49.607 356.393,48.845 C357.629,48.205 357.938,48.679 357.938,50.077 C358.025,51.649 358.267,53.213 358.654,54.738 C358.904,55.726 359.367,56.846 360.36,57.075 C361.385,57.305 362.328,56.41 362.832,55.487 C364.606,52.24 364.006,48.288 365.519,44.904 C365.847,44.171 366.23,43.463 366.65,42.78 C367.677,41.116 370.392,38.99 370.44,42.346 C370.483,45.156 369.825,47.957 369.825,50.774 C369.825,65.011 371.825,79.214 375.801,92.884 C379.012,103.918 381.344,115.385 390.172,123.289 C396.099,128.596 404.169,132.779 413.252,119.534 C416.9,114.217 412.974,108.112 411.358,105.644 C407.434,99.66 410.153,88.163 412.069,82.533 C414.789,74.53 417.66,70.041 422.522,68.667 C425.406,67.85 437.118,68.17 439.435,70.056 C441.634,71.853 443.17,75.571 444.671,78.024 C446.162,80.467 452.509,88.464 456.311,89.145 C456.933,89.261 455.503,97.347 454.672,100.387 C453.729,103.822 447.985,123.14 446.854,129.266 C446.062,133.545 448.268,136.156 451.874,136.196 C454.214,135.533 456.43,134.432 458.362,132.949 C462.114,130.056 465.248,124.912 470.05,123.643 C470.656,123.478 471.286,123.388 471.917,123.326 C474.086,122.858 476.355,122.738 478.575,122.635 C479.558,122.588 480.559,122.674 481.533,122.775 C482.42,122.866 483.981,122.919 484.492,123.792 C484.658,124.081 484.712,124.422 484.737,124.758 C484.764,125.291 484.652,126.89 484.336,127.017 C483.839,127.214 482.981,127.19 482.471,127.163 C481.906,127.14 481.341,127.124 480.773,127.124 C479.846,127.121 478.912,127.153 477.982,127.198 C477.58,127.222 477.271,127.562 477.292,127.965 C477.31,128.37 477.672,128.68 478.059,128.659 C478.889,128.617 479.718,128.59 480.548,128.587 C481.103,128.582 481.663,128.59 482.212,128.617 C482.667,128.633 483.519,128.569 483.864,128.946 C484.046,129.136 484.019,129.585 484.038,129.835 C484.067,130.184 484.073,130.538 484.088,130.889 C484.11,131.272 484.133,131.654 484.154,132.037 C484.173,132.425 484.032,133.106 482.933,133.383 C481.297,133.782 479.66,133.686 477.992,133.755 C477.588,133.769 477.275,134.109 477.289,134.515 C477.308,134.908 477.63,135.213 478.018,135.213 L478.052,135.213 C478.424,135.201 479.846,135.144 479.846,135.144 C480.186,135.129 480.528,135.126 480.868,135.123 C481.332,135.12 481.799,135.118 482.263,135.086 C482.693,135.057 483.231,134.98 483.625,135.206 C483.695,135.243 483.86,137.172 483.598,137.508 C482.256,139.195 478.774,138.742 476.878,138.982 C474.915,139.229 472.134,139.738 471.128,140.449 C469.848,141.356 463.394,151.221 462.038,152.842 L462.038,152.842 Z M483.01,176.243 C482.777,176.265 482.542,176.263 482.31,176.245 C481.287,176.154 476.45,176.114 474.966,176.073 C473.324,176.026 471.86,177.057 471.917,172.665 C471.943,170.365 472.379,170.129 472.821,170.085 C473.066,170.059 473.326,170.061 473.574,170.061 C473.773,170.073 473.971,170.076 474.143,170.059 C476.267,169.861 478.376,170.059 480.494,170.099 C481.853,170.123 484.15,169.933 484.737,170.822 C484.785,170.891 484.823,174.592 484.828,174.76 C484.923,176.572 483.933,176.142 483.01,176.243 L483.01,176.243 Z M484.032,193.844 C481.853,194.637 473.033,194.019 472.719,193.441 C471.846,191.837 471.794,180.318 472.079,179.859 C472.861,178.586 482.039,179.127 482.039,179.127 C482.976,179.246 484.061,179.515 484.556,180.877 C485.507,183.452 484.913,193.522 484.032,193.844 L484.032,193.844 Z M477.643,153.246 C477.833,157.638 477.935,161.83 477.1,166.156 C477.092,166.192 477.084,166.224 477.068,166.253 C476.75,166.876 473.678,167.278 473.4,166.364 C473.105,165.379 473.247,156.328 473.193,154.343 C473.162,152.821 472.943,144.241 473.156,143.394 C473.391,142.487 476.648,142.731 476.902,143.28 C478.042,145.771 477.517,150.308 477.643,153.246 L477.643,153.246 Z M483.335,148.321 C483.396,149.602 483.474,150.909 483.552,152.238 C483.828,156.881 484.28,160.273 483.864,165.279 C483.833,165.669 483.655,166.008 483.412,166.131 C482.785,166.437 480.294,166.815 480.155,165.911 C479.95,164.585 479.836,163.02 479.76,161.864 C479.623,159.765 479.617,143.519 479.729,142.902 C479.858,142.21 482.396,141.886 482.938,142.043 C483.709,142.265 483.319,145.263 483.319,147.082 L483.335,148.321 Z M485.156,201.121 C485.088,201.865 485.056,202.556 484.247,202.782 C483.695,202.941 483.101,202.883 482.532,202.894 C480.616,202.916 478.691,202.638 476.785,202.463 C475.748,202.369 474.705,202.372 473.663,202.322 C472.911,202.282 472.486,202.096 472.058,201.395 C471.808,200.964 471.965,199.966 471.948,199.473 C472.016,198.857 472.065,197.033 472.326,196.847 C472.557,196.685 483.447,197.141 484.032,197.182 C484.597,197.217 484.59,197.199 484.928,197.951 C485.201,198.557 485.237,199.333 485.255,200.036 C485.268,200.4 485.19,200.765 485.156,201.121 L485.156,201.121 Z M485.881,73.164 C485.796,73.671 485.716,74.142 485.668,74.509 C485.478,76.013 485.306,77.572 485.148,79.081 C484.945,81.051 484.733,83.083 484.456,84.98 C484.413,85.298 484.365,85.617 484.323,85.944 C484.12,87.418 483.873,90.618 483.459,91.546 C483.06,92.451 480.181,91.802 479.736,91.277 C479.256,90.704 480.888,68.673 481.878,66.355 C482.128,65.764 482.658,65.647 483.285,65.737 C483.981,65.844 485.995,66.296 486.187,67.233 C486.367,68.114 486.132,71.687 485.881,73.164 L485.881,73.164 Z M486.803,61.559 C486.72,61.991 486.625,63.242 486.509,63.624 C486.508,63.636 486.461,63.659 486.457,63.661 C486.186,63.807 485.827,63.746 485.546,63.736 C485.004,63.723 476.741,62.529 476.233,62.437 C475.739,62.349 475.2,62.238 474.95,61.573 C474.759,61.038 474.768,59.286 474.797,58.696 C474.811,58.391 474.901,58.097 474.95,57.796 C475.009,57.485 475.032,57.256 475.158,56.964 C475.2,56.865 475.248,56.767 475.311,56.692 C475.434,56.564 475.589,56.542 475.734,56.538 C477.148,56.444 478.542,56.716 479.926,56.995 C480.744,57.155 481.561,57.323 482.379,57.482 C483.129,57.631 483.864,57.826 484.636,57.868 C484.834,57.876 485.043,57.895 485.249,57.931 C486.058,58.062 486.575,58.364 486.825,58.842 C486.855,58.906 486.867,58.991 486.854,59.074 L486.803,61.559 L486.803,61.559 Z"/>
  </g>
</svg>
